<?xml version="1.0" encoding="iso-8859-1"?>
<!-- Uploaded to: SVG Repo, www.svgrepo.com, Generator: SVG Repo Mixer Tools -->
<svg height="800px" width="800px" version="1.1" id="Layer_1" xmlns="http://www.w3.org/2000/svg" xmlns:xlink="http://www.w3.org/1999/xlink" 
	 viewBox="0 0 512.002 512.002" xml:space="preserve">
<g transform="translate(-1)">
	<g>
		<path style="fill:#A5A4A4;" d="M187.577,104.138c-2.239,0-4.478-0.868-6.17-2.577c-14.718-14.9-14.7-40.891,0.035-55.626
			c8.088-8.097,8.071-22.953-0.035-31.154c-3.376-3.41-3.341-8.904,0.069-12.271c3.41-3.384,8.904-3.332,12.271,0.069
			c14.718,14.9,14.7,40.891-0.035,55.626c-8.088,8.097-8.071,22.953,0.035,31.154c3.376,3.41,3.341,8.904-0.069,12.271
			C191.986,103.305,189.782,104.138,187.577,104.138"/>
		<path style="fill:#A5A4A4;" d="M118.154,104.138c-1.033,0-2.074-0.182-3.098-0.564c-8.574-3.28-13.98-11.073-14.128-20.332
			c-0.148-9.528,5.432-18.293,13.885-21.825c2.248-0.937,3.246-3.523,3.211-5.537c-0.035-2.169-1.033-3.636-2.968-4.374
			c-4.478-1.718-6.717-6.734-5.007-11.203c1.71-4.487,6.708-6.751,11.203-5.025c8.574,3.28,13.98,11.073,14.128,20.332
			c0.148,9.528-5.432,18.293-13.885,21.825c-2.248,0.937-3.246,3.523-3.211,5.537c0.035,2.169,1.033,3.636,2.968,4.374
			c4.478,1.718,6.717,6.734,5.007,11.203C124.94,102.012,121.642,104.138,118.154,104.138"/>
		<path style="fill:#A5A4A4;" d="M265.679,104.138c-1.033,0-2.074-0.182-3.098-0.564c-8.574-3.28-13.98-11.073-14.128-20.332
			c-0.148-9.528,5.432-18.293,13.885-21.825c2.248-0.937,3.246-3.523,3.211-5.537c-0.035-2.169-1.033-3.636-2.968-4.374
			c-4.478-1.718-6.717-6.734-5.007-11.203c1.71-4.487,6.708-6.751,11.203-5.025c8.574,3.28,13.98,11.073,14.128,20.332
			c0.148,9.528-5.432,18.293-13.885,21.825c-2.248,0.937-3.246,3.523-3.211,5.537c0.035,2.169,1.033,3.636,2.968,4.374
			c4.478,1.718,6.717,6.734,5.007,11.203C272.465,102.012,269.168,104.138,265.679,104.138"/>
	</g>
	<path style="fill:#D2D5D7;" d="M382.832,373.155c-4.513,0-8.938-0.477-13.286-1.267c11.299-36.56,17.625-77.277,17.625-120.225
		c0-8.721-0.304-17.339-0.816-25.852c39.025,1.857,70.239,34.104,70.239,73.58C456.594,340.066,423.505,373.155,382.832,373.155
		 M382.832,173.562c-0.972,0-1.944,0.069-2.924,0.095c0.009,0.017,0.009,0.035,0.009,0.052c-1.684-8.904-3.601-35.007-5.823-43.537
		H18.418C10.009,162.454,5.34,214.912,5.34,251.663c0,115.582,45.672,215.092,111.399,260.339h159.032
		c29.722-20.463,55.279-52.103,74.431-91.231c10.587,2.846,21.469,4.452,32.629,4.452c69.38,0,125.831-56.45,125.831-125.831
		S452.212,173.562,382.832,173.562"/>
	<g>
		<polygon style="fill:#F9DA49;" points="291.712,216.952 309.068,216.952 309.068,130.172 291.712,130.172 		"/>
		<polygon style="fill:#F9DA49;" points="265.679,329.765 265.679,234.307 300.391,199.596 335.103,234.307 335.103,329.765 		"/>
	</g>
</g>
</svg>